<svg xmlns="http://www.w3.org/2000/svg" viewBox="0 0 30 30"><defs><style>.cls-1{fill:none;}</style></defs><title>icon-profile</title><g id="Layer_1" data-name="Layer 1"><rect class="cls-1" width="30" height="30"/><path d="M21.11,11.54l-5-2.85,2.3-2.3L15,2.95,11.56,6.39l2.3,2.3-5,2.85L4,10.55V24.81l10.27,2.1.7.14.7-.14L26,24.81V10.55ZM13.54,6.39,15,4.93l1.46,1.46L15,7.85Zm.76,19.1L5.43,23.67V12.26l8.87,1.81ZM11,12l3.92-2.25L15,9.64l.12.07L19,12l-4,.83Zm13.61,11.7L15.7,25.48V14.08l8.87-1.81Z"/></g></svg>