<svg xmlns="http://www.w3.org/2000/svg" viewBox="0 0 30 30"><defs><style>.cls-1{fill:none;}</style></defs><title>icon-settings</title><g id="Layer_1" data-name="Layer 1"><rect class="cls-1" width="30" height="30"/><path d="M15,26.38a.73.73,0,0,1-.73-.73V24L9.15,21.88,7.71,23.32a.75.75,0,0,1-1,0,.73.73,0,0,1,0-1l1.45-1.45L6,15.73H4.35a.73.73,0,1,1,0-1.46H6L8.09,9.19,6.37,7.75a.73.73,0,0,1,.93-1.12L9.1,8.13,14.27,6V4.35a.73.73,0,0,1,1.46,0V6L20.9,8.13l1.79-1.49a.73.73,0,0,1,.93,1.12L21.91,9.19,24,14.27h1.64a.73.73,0,0,1,0,1.46H24l-2.11,5.13,1.43,1.43a.73.73,0,0,1,0,1,.75.75,0,0,1-1,0l-1.43-1.43L15.73,24v1.64A.73.73,0,0,1,15,26.38Zm-5.44-5.9L15,22.73l5.47-2.25L22.73,15,20.47,9.53,15,7.27,9.53,9.53,7.27,15Z"/><path d="M15,20a.73.73,0,0,1-.3-.06l-3.19-1.42a.74.74,0,0,1-.39-.41l-1.06-2.84a.73.73,0,0,1,0-.51l1.06-2.84a.74.74,0,0,1,.39-.41l3.19-1.42a.73.73,0,0,1,.59,0l3.19,1.42a.72.72,0,0,1,.39.41h0l1.06,2.84a.73.73,0,0,1,0,.51L18.88,18.1a.73.73,0,0,1-.39.41L15.3,19.92A.73.73,0,0,1,15,20ZM12.38,17.3,15,18.46l2.62-1.16.86-2.3-.86-2.3L15,11.54,12.38,12.7,11.52,15Z"/></g></svg>