<svg xmlns="http://www.w3.org/2000/svg" viewBox="0 0 80 80"><defs><style>.cls-1{fill:none;}</style></defs><title>icon-actor</title><g id="Layer_1" data-name="Layer 1"><rect class="cls-1" width="80" height="80"/><path d="M73.48,38.86a.94.94,0,0,0-.16-.38h0L58,17.42a1,1,0,0,0-.77-.39H48.62a1,1,0,0,0,0,1.91h8.13L70.67,38.09H9.33L23.26,18.94h8.13a1,1,0,0,0,0-1.91H22.77a1,1,0,0,0-.77.39L6.68,38.47h0a1.06,1.06,0,0,0-.15.79s0,0,0,.06l6.91,23a1,1,0,0,0,.92.68H30.89a1,1,0,0,0,.93-.74L37,40h6l5.19,22.24a1,1,0,0,0,.93.74H65.64a1,1,0,0,0,.92-.68l6.91-23s0,0,0-.06a2.15,2.15,0,0,0,0-.41ZM35,40l-.89,3.83H10.32a.94.94,0,0,0-.4.1L8.74,40ZM30.13,61.06H15.07L10.47,45.74H33.7Zm34.8,0H49.87L46.3,45.74H69.53Zm5.15-17.14a.94.94,0,0,0-.4-.1H45.85L45,40h26.3Z"/></g></svg>