<svg xmlns="http://www.w3.org/2000/svg" viewBox="0 0 80 80"><defs><style>.cls-1{fill:none;}</style></defs><title>icon-trigger</title><g id="Layer_1" data-name="Layer 1"><rect class="cls-1" width="80" height="80"/><path d="M58,56.42a.86.86,0,0,0-.8-.56H48.59a.86.86,0,0,0-.49.15l-7.22,5.06v-4.4L49,51.44a.86.86,0,0,0,.4-.72v-.86h3.43a.86.86,0,0,0,.86-.86V43a.86.86,0,0,0-.72-.85l-12.14-2V35.84l14.92-6.63a.86.86,0,0,0,.51-.78V19a.86.86,0,0,0-.86-.86H53.2L45.73,11.5a.83.83,0,0,0-.57-.22l-5.13,0-5.14,0a.93.93,0,0,0-.57.22l-7.47,6.64H24.58a.86.86,0,0,0-.86.86v9.43a.86.86,0,0,0,.51.78l14.92,6.63v4l-11.86-2a.86.86,0,0,0-.69.19L13.61,49H7.44a.86.86,0,0,0,0,1.71h6.49a.86.86,0,0,0,.55-.2L27.4,39.62l11.75,2v4a.84.84,0,0,0,.06.28l-9,5a.86.86,0,0,0,.83,1.5l9.17-5h7.57v3L25.55,64.43H15.15a.86.86,0,0,0,0,1.71H25.8a.86.86,0,0,0,.46-.14l12.89-8.25v10.1a.86.86,0,0,0,1.71,0V63.58H50.3a.86.86,0,0,0,.56-.21l6.86-6A.86.86,0,0,0,58,56.42ZM40,17.44l5.16,3.22-4.3,1.43V20.71a.86.86,0,1,0-1.71,0v1.38l-4.3-1.43ZM54.59,27.87,40.87,34V23.9l12.14-4h1.58Zm-3.39-9.22L47.28,20l-6.41-4V13l4,0ZM35.19,13l4,0v2.93l-6.41,4-3.91-1.3Zm-9.75,6.86H27l12.14,4V34l-13.72-6.1ZM40.87,45.57v-3.7L52,43.73v4.42H49.44V46.43a.86.86,0,0,0-.86-.86ZM50,61.86H42.73l6.12-4.29h6Z"/></g></svg>