<svg xmlns="http://www.w3.org/2000/svg" viewBox="0 0 80 80"><defs><style>.cls-1{fill:none;}</style></defs><title>icon-finish</title><g id="Layer_1" data-name="Layer 1"><rect class="cls-1" width="80" height="80"/><path d="M68.13,27.83l-16-16a1,1,0,0,0-.71-.29H29.53a1,1,0,0,0-.68.27l-17,16a1,1,0,0,0-.31.73V50.34a1,1,0,0,0,.29.7l7.85,7.91a1,1,0,0,0,.09.16,1,1,0,0,0,.24.18l8.77,8.84a1,1,0,0,0,.71.3H51.47a1,1,0,0,0,.73-.32L68.15,51a1,1,0,0,0,.27-.68V28.53A1,1,0,0,0,68.13,27.83ZM51,66.43H29.94l-7.9-8,7.87-7H51.05l7.21,7.21ZM66.43,49.95l-6.8,7.28-7.46-7.46a1,1,0,0,0-.71-.29H29.53a1,1,0,0,0-.66.25L20.63,57l-7.06-7.11V29L29.92,13.57H51.05L66.43,28.95Z"/><path d="M25.54,40.5h-7a1,1,0,1,0,0,2h7a1,1,0,0,0,0-2Z"/><path d="M27.56,32.8l-5.45-3.15a1,1,0,0,0-1,1.73l5.45,3.15a1,1,0,0,0,1-1.73Z"/><path d="M30.26,22a1,1,0,1,0-1.73,1l3.15,5.45a1,1,0,1,0,1.73-1Z"/><path d="M40.5,27.53a1,1,0,0,0,1-1v-7a1,1,0,0,0-2,0v7A1,1,0,0,0,40.5,27.53Z"/><path d="M50.23,22.12l-3.15,5.45a1,1,0,0,0,1.73,1L52,23.12a1,1,0,1,0-1.73-1Z"/><path d="M54.46,41.5a1,1,0,0,0,1,1h7a1,1,0,0,0,0-2h-7A1,1,0,0,0,54.46,41.5Z"/><path d="M47.48,57.45h-14a1,1,0,0,0,0,2h14a1,1,0,0,0,0-2Z"/><path d="M39.59,41.86A1,1,0,0,0,41,42.2l18-10.79a1,1,0,1,0-1-1.71l-18,10.79A1,1,0,0,0,39.59,41.86Z"/></g></svg>