<svg id="Layer_1" data-name="Layer 1" xmlns="http://www.w3.org/2000/svg" viewBox="0 0 32 32"><title>actor</title><path d="M25.19,24.61H19.26a.71.71,0,0,1-.7-.56l-1.79-7.68H15.23l-1.79,7.68a.71.71,0,0,1-.7.56H6.81a.71.71,0,0,1-.69-.51L3.63,15.8v0a.7.7,0,0,1,0-.16v-.1a.69.69,0,0,1,.12-.28L9.25,7.69a.72.72,0,0,1,.58-.3h3.09a.72.72,0,0,1,0,1.44H10.19L5.75,14.94H26.25L21.81,8.83H19.09a.72.72,0,0,1,0-1.44h3.09a.72.72,0,0,1,.58.29l5.49,7.54a.74.74,0,0,1,.12.28v.11a.64.64,0,0,1,0,.15v0l0,.07L25.88,24.1A.72.72,0,0,1,25.19,24.61Zm-5.35-1.44h4.82l2-6.8H18.25Zm-12.49,0h4.82l1.58-6.8H5.3Z"/></svg>