<svg id="Layer_1" data-name="Layer 1" xmlns="http://www.w3.org/2000/svg" viewBox="0 0 32 32"><title>logo</title><path d="M27.88,12.08a1.35,1.35,0,0,0-1.32,1.63A10.87,10.87,0,0,1,26.8,16a10.77,10.77,0,0,1-7.5,10.29,1.35,1.35,0,0,0,.82,2.57A13.51,13.51,0,0,0,29.2,13.15,1.35,1.35,0,0,0,27.88,12.08Z"/><path d="M8.74,8A10.8,10.8,0,0,1,23.26,8a1.35,1.35,0,0,0,1.81-2A13.5,13.5,0,0,0,6.93,6,1.35,1.35,0,0,0,8.74,8Z"/><path d="M12.7,26.29A10.77,10.77,0,0,1,5.2,16a10.87,10.87,0,0,1,.24-2.29,1.35,1.35,0,1,0-2.64-.57,13.51,13.51,0,0,0,9.07,15.71,1.35,1.35,0,1,0,.82-2.57Z"/><path d="M20.86,18.34a1.35,1.35,0,1,0,2.43,1.17c.07-.15.13-.28.19-.42a8.06,8.06,0,0,0-1.35-8.39,1.35,1.35,0,1,0-2,1.76,5.38,5.38,0,0,1,.9,5.59Z"/><path d="M18.59,22.37A1.35,1.35,0,0,0,17,21.3,5.4,5.4,0,0,1,11.54,19,1.35,1.35,0,0,0,9.3,20.55,8.1,8.1,0,0,0,17.51,24,1.35,1.35,0,0,0,18.59,22.37Z"/><path d="M16.85,9.16A1.35,1.35,0,0,0,15.4,7.92a8.06,8.06,0,0,0-6.88,5c-.06.13-.11.27-.16.43a1.35,1.35,0,1,0,2.55.89l.11-.29a5.38,5.38,0,0,1,4.59-3.32A1.35,1.35,0,0,0,16.85,9.16Z"/><circle cx="16" cy="16" r="2.7" transform="translate(-3.59 27.31) rotate(-75)"/></svg>