<svg id="Layer_1" data-name="Layer 1" xmlns="http://www.w3.org/2000/svg" viewBox="0 0 32 32"><title>settings</title><path d="M27.61,15.24H25.8L23.5,9.65l1.89-1.58a.76.76,0,1,0-1-1.17l-2,1.64L16.76,6.2V4.39a.76.76,0,1,0-1.52,0V6.2L9.55,8.54l-2-1.64a.76.76,0,0,0-1,1.17L8.5,9.65,6.2,15.24H4.39a.76.76,0,1,0,0,1.52H6.2l2.34,5.62L6.94,24a.76.76,0,0,0,0,1.08.78.78,0,0,0,1.08,0l1.58-1.58,5.63,2.33v1.81a.76.76,0,0,0,1.52,0V25.8l5.64-2.32L24,25.06a.78.78,0,0,0,1.08,0,.77.77,0,0,0,0-1.08L23.48,22.4l2.32-5.64h1.81a.76.76,0,0,0,0-1.52ZM22,22l-6,2.47L10,22l-2.5-6L10,10l6-2.47L22,10l2.47,6Zm-1.8-9.36h0a.77.77,0,0,0-.4-.43l-3.48-1.55a.77.77,0,0,0-.62,0l-3.48,1.55a.77.77,0,0,0-.4.43l-1.16,3.1a.76.76,0,0,0,0,.53l1.16,3.1a.75.75,0,0,0,.4.43l3.48,1.55a.77.77,0,0,0,.62,0l3.48-1.55a.75.75,0,0,0,.4-.43l1.16-3.1a.76.76,0,0,0,0-.53Zm-1.31,5.89L16,19.81l-2.88-1.28L12.17,16l.95-2.53L16,12.19l2.88,1.28L19.83,16Z"/></svg>