<svg id="Layer_1" data-name="Layer 1" xmlns="http://www.w3.org/2000/svg" viewBox="0 0 32 32"><title>zone</title><path d="M27.62,26.09H4.38a.68.68,0,0,1-.58-1L11,13.42H7.84a.68.68,0,0,1,0-1.37h4l1.22-2a.67.67,0,0,1,.58-.31h0a.67.67,0,0,1,.58.31l1.69,2.75h2.72a.68.68,0,0,1,0,1.37H16.71l2,3.29L20.56,15a.69.69,0,0,1,.57-.28.68.68,0,0,1,.55.31l6.5,10a.68.68,0,0,1-.57,1.06ZM23.2,24.72h3.16l-5.28-8.1-1.57,2.11Zm-17.59,0h16L17,17.23l-1,1a.7.7,0,0,1-.91.05l-1.49-1.2-1.49,1.2a.68.68,0,0,1-.91-.05l-1-1ZM11,16l.78.78,1.44-1.15a.69.69,0,0,1,.85,0l1.44,1.15.78-.78-2.65-4.3Z"/><path d="M7.84,15.72H4.38a.68.68,0,0,1,0-1.37H7.84a.68.68,0,0,1,0,1.37Z"/><path d="M26.66,15H23.2a.68.68,0,0,1,0-1.37h3.46a.68.68,0,0,1,0,1.37Z"/><path d="M21.66,12.65a3.37,3.37,0,0,1-3.19-2.3H17.06a.68.68,0,0,1,0-1.37H18.3a3.37,3.37,0,0,1,6.55-.77h1a.68.68,0,1,1,0,1.37H25A3.38,3.38,0,0,1,21.66,12.65ZM20,10.35A2,2,0,1,0,19.68,9h1.6a.68.68,0,0,1,0,1.37Z"/><path d="M9.38,10.35H5.92A.68.68,0,0,1,5.92,9H9.38a.68.68,0,0,1,0,1.37Z"/></svg>